<svg aria-roledescription="er" role="graphics-document document" viewBox="0 0 140.77029418945312 302" style="max-width: 140.77px; background-color: white;" xmlns:xlink="http://www.w3.org/1999/xlink" xmlns="http://www.w3.org/2000/svg" width="100%" id="my-svg"><style>#my-svg{font-family:"trebuchet ms",verdana,arial,sans-serif;font-size:16px;fill:#333;}#my-svg .error-icon{fill:#552222;}#my-svg .error-text{fill:#552222;stroke:#552222;}#my-svg .edge-thickness-normal{stroke-width:2px;}#my-svg .edge-thickness-thick{stroke-width:3.5px;}#my-svg .edge-pattern-solid{stroke-dasharray:0;}#my-svg .edge-pattern-dashed{stroke-dasharray:3;}#my-svg .edge-pattern-dotted{stroke-dasharray:2;}#my-svg .marker{fill:#333333;stroke:#333333;}#my-svg .marker.cross{stroke:#333333;}#my-svg svg{font-family:"trebuchet ms",verdana,arial,sans-serif;font-size:16px;}#my-svg .entityBox{fill:#ECECFF;stroke:#9370DB;}#my-svg .attributeBoxOdd{fill:#ffffff;stroke:#9370DB;}#my-svg .attributeBoxEven{fill:#f2f2f2;stroke:#9370DB;}#my-svg .relationshipLabelBox{fill:hsl(80, 100%, 96.2745098039%);opacity:0.7;background-color:hsl(80, 100%, 96.2745098039%);}#my-svg .relationshipLabelBox rect{opacity:0.5;}#my-svg .relationshipLine{stroke:#333333;}#my-svg .entityTitleText{text-anchor:middle;font-size:18px;fill:#333;}#my-svg #MD_PARENT_START{fill:#f5f5f5!important;stroke:#333333!important;stroke-width:1;}#my-svg #MD_PARENT_END{fill:#f5f5f5!important;stroke:#333333!important;stroke-width:1;}#my-svg :root{--mermaid-font-family:"trebuchet ms",verdana,arial,sans-serif;}</style><g/><defs><marker orient="auto" markerHeight="240" markerWidth="190" refY="7" refX="0" id="MD_PARENT_START"><path d="M 18,7 L9,13 L1,7 L9,1 Z"/></marker></defs><defs><marker orient="auto" markerHeight="28" markerWidth="20" refY="7" refX="19" id="MD_PARENT_END"><path d="M 18,7 L9,13 L1,7 L9,1 Z"/></marker></defs><defs><marker orient="auto" markerHeight="18" markerWidth="18" refY="9" refX="0" id="ONLY_ONE_START"><path d="M9,0 L9,18 M15,0 L15,18" fill="none" stroke="gray"/></marker></defs><defs><marker orient="auto" markerHeight="18" markerWidth="18" refY="9" refX="18" id="ONLY_ONE_END"><path d="M3,0 L3,18 M9,0 L9,18" fill="none" stroke="gray"/></marker></defs><defs><marker orient="auto" markerHeight="18" markerWidth="30" refY="9" refX="0" id="ZERO_OR_ONE_START"><circle r="6" cy="9" cx="21" fill="white" stroke="gray"/><path d="M9,0 L9,18" fill="none" stroke="gray"/></marker></defs><defs><marker orient="auto" markerHeight="18" markerWidth="30" refY="9" refX="30" id="ZERO_OR_ONE_END"><circle r="6" cy="9" cx="9" fill="white" stroke="gray"/><path d="M21,0 L21,18" fill="none" stroke="gray"/></marker></defs><defs><marker orient="auto" markerHeight="36" markerWidth="45" refY="18" refX="18" id="ONE_OR_MORE_START"><path d="M0,18 Q 18,0 36,18 Q 18,36 0,18 M42,9 L42,27" fill="none" stroke="gray"/></marker></defs><defs><marker orient="auto" markerHeight="36" markerWidth="45" refY="18" refX="27" id="ONE_OR_MORE_END"><path d="M3,9 L3,27 M9,18 Q27,0 45,18 Q27,36 9,18" fill="none" stroke="gray"/></marker></defs><defs><marker orient="auto" markerHeight="36" markerWidth="57" refY="18" refX="18" id="ZERO_OR_MORE_START"><circle r="6" cy="18" cx="48" fill="white" stroke="gray"/><path d="M0,18 Q18,0 36,18 Q18,36 0,18" fill="none" stroke="gray"/></marker></defs><defs><marker orient="auto" markerHeight="36" markerWidth="57" refY="18" refX="39" id="ZERO_OR_MORE_END"><circle r="6" cy="18" cx="9" fill="white" stroke="gray"/><path d="M21,18 Q39,0 57,18 Q39,36 21,18" fill="none" stroke="gray"/></marker></defs><path style="stroke: gray; fill: none;" marker-start="url(#ONLY_ONE_START)" marker-end="url(#ZERO_OR_MORE_END)" d="M70.385,107L70.385,115.333C70.385,123.667,70.385,140.333,70.385,157C70.385,173.667,70.385,190.333,70.385,198.667L70.385,207" class="er relationshipLine"/><g transform="translate(20,20 )" id="entity-CUSTOMER-7c659eae-ee79-5f5d-acd7-c418f8ad1d67"><rect height="87" width="100.77029418945312" y="0" x="0" class="er entityBox"/><text style="dominant-baseline: middle; text-anchor: middle; font-size: 12px;" transform="translate(50.38514709472656,12)" y="0" x="0" id="text-entity-CUSTOMER-7c659eae-ee79-5f5d-acd7-c418f8ad1d67" class="er entityLabel">CUSTOMER</text><rect height="21" width="35.245819091796875" y="24" x="0" class="er attributeBoxOdd"/><text style="dominant-baseline: middle; font-size: 10.2px;" transform="translate(5,34.5)" y="0" x="0" id="text-entity-CUSTOMER-7c659eae-ee79-5f5d-acd7-c418f8ad1d67-attr-1-type" class="er entityLabel">string</text><rect height="21" width="65.52447509765625" y="24" x="35.245819091796875" class="er attributeBoxOdd"/><text style="dominant-baseline: middle; font-size: 10.2px;" transform="translate(40.245819091796875,34.5)" y="0" x="0" id="text-entity-CUSTOMER-7c659eae-ee79-5f5d-acd7-c418f8ad1d67-attr-1-name" class="er entityLabel">name</text><rect height="21" width="35.245819091796875" y="45" x="0" class="er attributeBoxEven"/><text style="dominant-baseline: middle; font-size: 10.2px;" transform="translate(5,55.5)" y="0" x="0" id="text-entity-CUSTOMER-7c659eae-ee79-5f5d-acd7-c418f8ad1d67-attr-2-type" class="er entityLabel">string</text><rect height="21" width="65.52447509765625" y="45" x="35.245819091796875" class="er attributeBoxEven"/><text style="dominant-baseline: middle; font-size: 10.2px;" transform="translate(40.245819091796875,55.5)" y="0" x="0" id="text-entity-CUSTOMER-7c659eae-ee79-5f5d-acd7-c418f8ad1d67-attr-2-name" class="er entityLabel">custNumber</text><rect height="21" width="35.245819091796875" y="66" x="0" class="er attributeBoxOdd"/><text style="dominant-baseline: middle; font-size: 10.2px;" transform="translate(5,76.5)" y="0" x="0" id="text-entity-CUSTOMER-7c659eae-ee79-5f5d-acd7-c418f8ad1d67-attr-3-type" class="er entityLabel">string</text><rect height="21" width="65.52447509765625" y="66" x="35.245819091796875" class="er attributeBoxOdd"/><text style="dominant-baseline: middle; font-size: 10.2px;" transform="translate(40.245819091796875,76.5)" y="0" x="0" id="text-entity-CUSTOMER-7c659eae-ee79-5f5d-acd7-c418f8ad1d67-attr-3-name" class="er entityLabel">sector</text></g><g transform="translate(20.385147094726562,207 )" id="entity-ORDER-36941e20-eb1d-50a3-81c5-00079b43c24a"><rect height="75" width="100" y="0" x="0" class="er entityBox"/><text style="dominant-baseline: middle; text-anchor: middle; font-size: 12px;" transform="translate(50,37.5)" y="0" x="0" id="text-entity-ORDER-36941e20-eb1d-50a3-81c5-00079b43c24a" class="er entityLabel">ORDER</text></g><rect height="14" width="34.6875" y="150" x="53.04125213623047" class="er relationshipLabelBox"/><text style="text-anchor: middle; dominant-baseline: middle; font-size: 12px;" y="157" x="70.38500213623047" id="rel1" class="er relationshipLabel">places</text></svg>